<mxfile host="app.diagrams.net" modified="2023-05-07T20:48:19.239Z" agent="Mozilla/5.0 (Macintosh; Intel Mac OS X 10_15_7) AppleWebKit/605.1.15 (KHTML, like Gecko) Version/16.4 Safari/605.1.15" version="21.2.9" etag="Bw6KLaS4Mp3qDlrnD6hY" type="github">
  <diagram name="Страница 1" id="4YXCEpjjhKxfoHrsFKH3">
    <mxGraphModel>
      <root>
        <mxCell id="0" />
        <mxCell id="1" parent="0" />
      </root>
    </mxGraphModel>
  </diagram>
</mxfile>
